<svg xmlns="http://www.w3.org/2000/svg" width="256" height="256" viewBox="0 0 256 256" role="img" aria-labelledby="title"><title id="title">Cloud breaking</title><path d="M174.0 87.0 L186.0 87.0" fill="none" stroke="#F1BC55" stroke-width="7" stroke-linecap="round" stroke-linejoin="round" opacity="1"/><path d="M160.5 119.5 L169.0 128.0" fill="none" stroke="#F1BC55" stroke-width="7" stroke-linecap="round" stroke-linejoin="round" opacity="1"/><path d="M128.0 133.0 L128.0 145.0" fill="none" stroke="#F1BC55" stroke-width="7" stroke-linecap="round" stroke-linejoin="round" opacity="1"/><path d="M95.5 119.5 L87.0 128.0" fill="none" stroke="#F1BC55" stroke-width="7" stroke-linecap="round" stroke-linejoin="round" opacity="1"/><path d="M82.0 87.0 L70.0 87.0" fill="none" stroke="#F1BC55" stroke-width="7" stroke-linecap="round" stroke-linejoin="round" opacity="1"/><path d="M95.5 54.5 L87.0 46.0" fill="none" stroke="#F1BC55" stroke-width="7" stroke-linecap="round" stroke-linejoin="round" opacity="1"/><path d="M128.0 41.0 L128.0 29.0" fill="none" stroke="#F1BC55" stroke-width="7" stroke-linecap="round" stroke-linejoin="round" opacity="1"/><path d="M160.5 54.5 L169.0 46.0" fill="none" stroke="#F1BC55" stroke-width="7" stroke-linecap="round" stroke-linejoin="round" opacity="1"/><circle cx="128" cy="87" r="33" fill="#F1BC55" stroke="#344D61" stroke-width="6"/><g transform="translate(18 110) scale(0.6)"><path d="M25 80 C-8 80 -8 34 25 34 C28 3 73 -8 93 25 C126 10 151 32 148 54 C178 59 173 80 147 80 Z" fill="#D1DDE3" stroke="#344D61" stroke-width="6" stroke-linecap="round" stroke-linejoin="round" opacity="1"/></g><g transform="translate(144 118) scale(0.58)"><path d="M25 80 C-8 80 -8 34 25 34 C28 3 73 -8 93 25 C126 10 151 32 148 54 C178 59 173 80 147 80 Z" fill="#D1DDE3" stroke="#344D61" stroke-width="6" stroke-linecap="round" stroke-linejoin="round" opacity="1"/></g><path d="M111 183 L99 197 M145 183 L157 197" fill="none" stroke="#438F98" stroke-width="5" stroke-linecap="round" stroke-linejoin="round" opacity="1"/></svg>