<svg xmlns="http://www.w3.org/2000/svg" width="256" height="256" viewBox="0 0 256 256" role="img" aria-labelledby="title"><title id="title">Sunny intervals</title><path d="M134.0 88.0 L146.0 88.0" fill="none" stroke="#F1BC55" stroke-width="7" stroke-linecap="round" stroke-linejoin="round" opacity="1"/><path d="M121.7 117.7 L130.2 126.2" fill="none" stroke="#F1BC55" stroke-width="7" stroke-linecap="round" stroke-linejoin="round" opacity="1"/><path d="M92.0 130.0 L92.0 142.0" fill="none" stroke="#F1BC55" stroke-width="7" stroke-linecap="round" stroke-linejoin="round" opacity="1"/><path d="M62.3 117.7 L53.8 126.2" fill="none" stroke="#F1BC55" stroke-width="7" stroke-linecap="round" stroke-linejoin="round" opacity="1"/><path d="M50.0 88.0 L38.0 88.0" fill="none" stroke="#F1BC55" stroke-width="7" stroke-linecap="round" stroke-linejoin="round" opacity="1"/><path d="M62.3 58.3 L53.8 49.8" fill="none" stroke="#F1BC55" stroke-width="7" stroke-linecap="round" stroke-linejoin="round" opacity="1"/><path d="M92.0 46.0 L92.0 34.0" fill="none" stroke="#F1BC55" stroke-width="7" stroke-linecap="round" stroke-linejoin="round" opacity="1"/><path d="M121.7 58.3 L130.2 49.8" fill="none" stroke="#F1BC55" stroke-width="7" stroke-linecap="round" stroke-linejoin="round" opacity="1"/><circle cx="92" cy="88" r="29" fill="#F1BC55" stroke="#344D61" stroke-width="6"/><g transform="translate(99 114) scale(0.66)"><path d="M25 80 C-8 80 -8 34 25 34 C28 3 73 -8 93 25 C126 10 151 32 148 54 C178 59 173 80 147 80 Z" fill="#D1DDE3" stroke="#344D61" stroke-width="6" stroke-linecap="round" stroke-linejoin="round" opacity="1"/></g></svg>