<svg xmlns="http://www.w3.org/2000/svg" width="256" height="256" viewBox="0 0 256 256" role="img" aria-labelledby="wx-title-15"><title id="wx-title-15">Overcast</title><g transform="translate(44 75) scale(1)"><path d="M25 80 C-8 80 -8 34 25 34 C28 3 73 -8 93 25 C126 10 151 32 148 54 C178 59 173 80 147 80 Z" fill="#D9E0E8" stroke="#3A4A5C" stroke-width="6" stroke-linecap="round" stroke-linejoin="round" opacity="1"/></g><g transform="translate(100 131) scale(0.6)"><path d="M25 80 C-8 80 -8 34 25 34 C28 3 73 -8 93 25 C126 10 151 32 148 54 C178 59 173 80 147 80 Z" fill="#D9E0E8" stroke="#3A4A5C" stroke-width="6" stroke-linecap="round" stroke-linejoin="round" opacity="1"/></g></svg>
