<svg xmlns="http://www.w3.org/2000/svg" width="256" height="256" viewBox="0 0 256 256" role="img" aria-labelledby="wx-title-6"><title id="wx-title-6">Sun through cloud</title><path d="M199.0 85.0 L211.0 85.0" fill="none" stroke="#F5A524" stroke-width="7" stroke-linecap="round" stroke-linejoin="round" opacity="1"/><path d="M186.1 116.1 L194.6 124.6" fill="none" stroke="#F5A524" stroke-width="7" stroke-linecap="round" stroke-linejoin="round" opacity="1"/><path d="M155.0 129.0 L155.0 141.0" fill="none" stroke="#F5A524" stroke-width="7" stroke-linecap="round" stroke-linejoin="round" opacity="1"/><path d="M123.9 116.1 L115.4 124.6" fill="none" stroke="#F5A524" stroke-width="7" stroke-linecap="round" stroke-linejoin="round" opacity="1"/><path d="M111.0 85.0 L99.0 85.0" fill="none" stroke="#F5A524" stroke-width="7" stroke-linecap="round" stroke-linejoin="round" opacity="1"/><path d="M123.9 53.9 L115.4 45.4" fill="none" stroke="#F5A524" stroke-width="7" stroke-linecap="round" stroke-linejoin="round" opacity="1"/><path d="M155.0 41.0 L155.0 29.0" fill="none" stroke="#F5A524" stroke-width="7" stroke-linecap="round" stroke-linejoin="round" opacity="1"/><path d="M186.1 53.9 L194.6 45.4" fill="none" stroke="#F5A524" stroke-width="7" stroke-linecap="round" stroke-linejoin="round" opacity="1"/><circle cx="155" cy="85" r="31" fill="#F5A524" stroke="#7A4A12" stroke-width="6"/><g transform="translate(44 102) scale(1)"><path d="M25 80 C-8 80 -8 34 25 34 C28 3 73 -8 93 25 C126 10 151 32 148 54 C178 59 173 80 147 80 Z" fill="#FCE8C8" stroke="#7A4A12" stroke-width="6" stroke-linecap="round" stroke-linejoin="round" opacity="1"/></g></svg>
