<svg xmlns="http://www.w3.org/2000/svg" viewBox="0 0 64 64" fill="currentColor">
  <path opacity=".5" d="M32 8c-4 10-2 18 0 24 2-6 4-14 0-24zm0 24c-8 4-12 12-10 20 6-4 10-12 10-20zm0 0c8 4 12 12 10 20-6-4-10-12-10-20z"/>
  <path opacity=".35" d="M10 36c4-2 8 0 10 4-5 2-9 0-10-4zm44 0c-4-2-8 0-10 4 5 2 9 0 10-4z"/>
  <circle opacity=".45" cx="16" cy="16" r="4"/>
  <circle opacity=".3" cx="16" cy="16" r="6" fill="none" stroke="currentColor" stroke-width="1.2"/>
  <circle opacity=".45" cx="48" cy="48" r="4"/>
  <circle opacity=".3" cx="48" cy="48" r="6" fill="none" stroke="currentColor" stroke-width="1.2"/>
</svg>
